<?xml version="1.0" encoding="UTF-8"?>
<!DOCTYPE svg PUBLIC "-//W3C//DTD SVG 1.1//EN" "http://www.w3.org/Graphics/SVG/1.1/DTD/svg11.dtd">
<svg xmlns="http://www.w3.org/2000/svg" version="1.1" width="2480px" height="2183px" style="shape-rendering:geometricPrecision; text-rendering:geometricPrecision; image-rendering:optimizeQuality; fill-rule:evenodd; clip-rule:evenodd" xmlns:xlink="http://www.w3.org/1999/xlink">
<g><path style="opacity:0.998" fill="#cb2216" d="M 1622.5,36.5 C 1622.5,36.8333 1622.5,37.1667 1622.5,37.5C 1623.3,158.499 1623.97,279.499 1624.5,400.5C 1624.5,400.833 1624.5,401.167 1624.5,401.5C 1575.5,401.5 1526.5,401.5 1477.5,401.5C 1475.39,400.532 1473.06,400.198 1470.5,400.5C 1469.53,279.499 1468.53,158.499 1467.5,37.5C 1519.17,37.6092 1570.84,37.2758 1622.5,36.5 Z"/></g>
<g><path style="opacity:0.997" fill="#d12815" d="M 1622.5,37.5 C 1622.5,37.1667 1622.5,36.8333 1622.5,36.5C 1679.83,36.5 1737.17,36.5 1794.5,36.5C 1794.5,36.8333 1794.5,37.1667 1794.5,37.5C 1788.83,37.5 1783.17,37.5 1777.5,37.5C 1778.26,158.499 1778.93,279.499 1779.5,400.5C 1727.83,400.636 1676.17,400.969 1624.5,401.5C 1624.5,401.167 1624.5,400.833 1624.5,400.5C 1628.83,400.5 1633.17,400.5 1637.5,400.5C 1636.55,279.502 1635.88,158.502 1635.5,37.5C 1631.17,37.5 1626.83,37.5 1622.5,37.5 Z"/></g>
<g><path style="opacity:0.997" fill="#d62e14" d="M 1794.5,36.5 C 1810.08,36.1756 1825.58,36.509 1841,37.5C 1872.36,90.8952 1903.2,144.562 1933.5,198.5C 1933.41,265.836 1933.74,333.169 1934.5,400.5C 1888.83,400.5 1843.17,400.5 1797.5,400.5C 1796.51,279.5 1795.51,158.5 1794.5,37.5C 1794.5,37.1667 1794.5,36.8333 1794.5,36.5 Z"/></g>
<g><path style="opacity:0.999" fill="#b91817" d="M 1174.5,37.5 C 1154.67,38.4971 1134.67,38.8305 1114.5,38.5C 1116.78,352.832 1118.95,667.165 1121,981.5C 1121.22,986.915 1121.72,992.248 1122.5,997.5C 1100.61,985.622 1078.94,973.289 1057.5,960.5C 1056.5,774.168 1056.17,587.835 1056.5,401.5C 1027.17,401.5 997.833,401.5 968.5,401.5C 958.681,400.506 948.681,400.173 938.5,400.5C 937.674,280.16 936.674,159.827 935.5,39.5C 938.385,39.8064 941.052,39.4731 943.5,38.5C 1020.5,38.2969 1097.5,37.9635 1174.5,37.5 Z"/></g>
<g><path style="opacity:0.999" fill="#be1718" d="M 1174.5,37.5 C 1212.17,37.5 1249.83,37.5 1287.5,37.5C 1289.65,361.833 1291.81,686.166 1294,1010.5C 1294.17,1017.68 1294.67,1024.68 1295.5,1031.5C 1276.62,1042.86 1257.46,1053.86 1238,1064.5C 1199.08,1042.72 1160.58,1020.39 1122.5,997.5C 1121.72,992.248 1121.22,986.915 1121,981.5C 1118.95,667.165 1116.78,352.832 1114.5,38.5C 1134.67,38.8305 1154.67,38.4971 1174.5,37.5 Z"/></g>
<g><path style="opacity:0.988" fill="#c01917" d="M 1287.5,37.5 C 1296.83,37.5 1306.17,37.5 1315.5,37.5C 1306.68,38.4933 1297.68,38.8266 1288.5,38.5C 1290.78,353.165 1292.94,667.832 1295,982.5C 1295.17,998.672 1295.67,1014.67 1296.5,1030.5C 1296.5,1031.17 1296.17,1031.5 1295.5,1031.5C 1294.67,1024.68 1294.17,1017.68 1294,1010.5C 1291.81,686.166 1289.65,361.833 1287.5,37.5 Z"/></g>
<g><path style="opacity:0.998" fill="#c41b17" d="M 1315.5,37.5 C 1359.83,37.5 1404.17,37.5 1448.5,37.5C 1449.5,158.5 1450.5,279.5 1451.5,400.5C 1457.83,400.5 1464.17,400.5 1470.5,400.5C 1473.06,400.198 1475.39,400.532 1477.5,401.5C 1457.83,401.5 1438.17,401.5 1418.5,401.5C 1419.54,587.832 1419.71,774.165 1419,960.5C 1378.36,984.236 1337.52,1007.57 1296.5,1030.5C 1295.67,1014.67 1295.17,998.672 1295,982.5C 1292.94,667.832 1290.78,353.165 1288.5,38.5C 1297.68,38.8266 1306.68,38.4933 1315.5,37.5 Z"/></g>
<g><path style="opacity:1" fill="#c71e16" d="M 1448.5,37.5 C 1454.83,37.5 1461.17,37.5 1467.5,37.5C 1468.53,158.499 1469.53,279.499 1470.5,400.5C 1464.17,400.5 1457.83,400.5 1451.5,400.5C 1450.5,279.5 1449.5,158.5 1448.5,37.5 Z"/></g>
<g><path style="opacity:1" fill="#cd2615" d="M 1622.5,37.5 C 1626.83,37.5 1631.17,37.5 1635.5,37.5C 1635.88,158.502 1636.55,279.502 1637.5,400.5C 1633.17,400.5 1628.83,400.5 1624.5,400.5C 1623.97,279.499 1623.3,158.499 1622.5,37.5 Z"/></g>
<g><path style="opacity:1" fill="#d32c14" d="M 1794.5,37.5 C 1795.51,158.5 1796.51,279.5 1797.5,400.5C 1791.5,400.5 1785.5,400.5 1779.5,400.5C 1778.93,279.499 1778.26,158.499 1777.5,37.5C 1783.17,37.5 1788.83,37.5 1794.5,37.5 Z"/></g>
<g><path style="opacity:0.997" fill="#9f1a15" d="M 638.5,38.5 C 641.625,39.4794 644.958,39.8128 648.5,39.5C 649.746,160.483 650.746,281.483 651.5,402.5C 630.167,402.5 608.833,402.5 587.5,402.5C 587.558,308.663 586.891,214.997 585.5,121.5C 601.273,93.8876 617.273,66.3876 633.5,39C 635.134,38.5065 636.801,38.3398 638.5,38.5 Z"/></g>
<g><path style="opacity:0.996" fill="#a51a16" d="M 638.5,38.5 C 662.833,38.5 687.167,38.5 711.5,38.5C 712.764,159.473 713.764,280.473 714.5,401.5C 718.371,401.185 722.038,401.518 725.5,402.5C 700.833,402.5 676.167,402.5 651.5,402.5C 650.746,281.483 649.746,160.483 648.5,39.5C 644.958,39.8128 641.625,39.4794 638.5,38.5 Z"/></g>
<g><path style="opacity:0.998" fill="#ab1917" d="M 711.5,38.5 C 732.833,38.5 754.167,38.5 775.5,38.5C 776.319,159.499 776.985,280.499 777.5,401.5C 773.958,401.187 770.625,401.521 767.5,402.5C 753.5,402.5 739.5,402.5 725.5,402.5C 722.038,401.518 718.371,401.185 714.5,401.5C 713.764,280.473 712.764,159.473 711.5,38.5 Z"/></g>
<g><path style="opacity:0.999" fill="#b21917" d="M 775.5,38.5 C 821.5,38.5 867.5,38.5 913.5,38.5C 914.22,159.5 914.887,280.5 915.5,401.5C 866.161,401.289 816.827,401.623 767.5,402.5C 770.625,401.521 773.958,401.187 777.5,401.5C 776.985,280.499 776.319,159.499 775.5,38.5 Z"/></g>
<g><path style="opacity:0.998" fill="#b41717" d="M 913.5,38.5 C 923.5,38.5 933.5,38.5 943.5,38.5C 941.052,39.4731 938.385,39.8064 935.5,39.5C 936.674,159.827 937.674,280.16 938.5,400.5C 948.681,400.173 958.681,400.506 968.5,401.5C 950.833,401.5 933.167,401.5 915.5,401.5C 914.887,280.5 914.22,159.5 913.5,38.5 Z"/></g>
<g><path style="opacity:0.995" fill="#991b14" d="M 585.5,121.5 C 586.891,214.997 587.558,308.663 587.5,402.5C 563.167,402.5 538.833,402.5 514.5,402.5C 514.449,350.498 514.116,298.498 513.5,246.5C 537.247,204.67 561.247,163.003 585.5,121.5 Z"/></g>
<g><path style="opacity:0.997" fill="#d93114" d="M 1933.5,198.5 C 1941.96,211.312 1949.62,224.646 1956.5,238.5C 1956.4,292.325 1956.4,346.325 1956.5,400.5C 1949.17,400.5 1941.83,400.5 1934.5,400.5C 1933.74,333.169 1933.41,265.836 1933.5,198.5 Z"/></g>
<g><path style="opacity:0.987" fill="#db3313" d="M 1956.5,238.5 C 1988.06,291.94 2019.39,345.606 2050.5,399.5C 2019.17,400.5 1987.84,400.833 1956.5,400.5C 1956.4,346.325 1956.4,292.325 1956.5,238.5 Z"/></g>
<g><path style="opacity:0.994" fill="#931b13" d="M 513.5,246.5 C 514.116,298.498 514.449,350.498 514.5,402.5C 500.5,402.5 486.5,402.5 472.5,402.5C 465.687,401.509 458.687,401.175 451.5,401.5C 451.293,385.775 451.293,370.108 451.5,354.5C 471.664,318.166 492.331,282.166 513.5,246.5 Z"/></g>
<g><path style="opacity:0.983" fill="#8e1b12" d="M 451.5,354.5 C 451.293,370.108 451.293,385.775 451.5,401.5C 458.687,401.175 465.687,401.509 472.5,402.5C 456.153,402.833 439.82,402.499 423.5,401.5C 432.608,385.605 441.941,369.938 451.5,354.5 Z"/></g>
<g><path style="opacity:0.939" fill="#de3713" d="M 2255.5,752.5 C 2245.75,746.625 2235.75,741.292 2225.5,736.5C 2228.35,730.145 2231.85,724.145 2236,718.5C 2242.78,729.725 2249.28,741.058 2255.5,752.5 Z"/></g>
<g><path style="opacity:0.946" fill="#24b4e2" d="M 250.5,739.5 C 240.488,743.922 230.988,749.256 222,755.5C 221.601,755.272 221.435,754.938 221.5,754.5C 227.362,743.946 233.362,733.446 239.5,723C 241.113,722.911 242.28,723.745 243,725.5C 245.758,730.075 248.258,734.742 250.5,739.5 Z"/></g>
<g><path style="opacity:0.992" fill="#de3c13" d="M 2225.5,736.5 C 2235.75,741.292 2245.75,746.625 2255.5,752.5C 2269.99,776.136 2283.99,800.136 2297.5,824.5C 2297.44,825.043 2297.11,825.376 2296.5,825.5C 2268,808.747 2239.33,792.247 2210.5,776C 2208.31,774.933 2206.64,773.433 2205.5,771.5C 2211.92,759.663 2218.58,747.996 2225.5,736.5 Z"/></g>
<g><path style="opacity:0.992" fill="#29b3e1" d="M 250.5,739.5 C 262.864,759.886 274.864,780.552 286.5,801.5C 241.097,828.225 195.43,854.558 149.5,880.5C 172.998,838.166 196.998,796.166 221.5,754.5C 221.435,754.938 221.601,755.272 222,755.5C 230.988,749.256 240.488,743.922 250.5,739.5 Z"/></g>
<g><path style="opacity:0.997" fill="#df3e12" d="M 2205.5,771.5 C 2206.64,773.433 2208.31,774.933 2210.5,776C 2239.33,792.247 2268,808.747 2296.5,825.5C 2297.11,825.376 2297.44,825.043 2297.5,824.5C 2299.75,827.999 2301.75,831.665 2303.5,835.5C 2303.57,835.938 2303.4,836.272 2303,836.5C 2269.52,816.511 2235.69,797.178 2201.5,778.5C 2202.08,775.669 2203.41,773.336 2205.5,771.5 Z"/></g>
<g><path style="opacity:0.993" fill="#df4211" d="M 2201.5,778.5 C 2235.69,797.178 2269.52,816.511 2303,836.5C 2303.4,836.272 2303.57,835.938 2303.5,835.5C 2316.34,856.498 2328.67,877.832 2340.5,899.5C 2288.17,869.5 2235.83,839.5 2183.5,809.5C 2189.25,798.995 2195.25,788.662 2201.5,778.5 Z"/></g>
<g><path style="opacity:0.998" fill="#2cb1e0" d="M 286.5,801.5 C 292.336,810.5 297.669,819.833 302.5,829.5C 241.429,866.035 179.929,902.035 118,937.5C 117.536,936.906 117.369,936.239 117.5,935.5C 127.424,916.64 138.091,898.306 149.5,880.5C 195.43,854.558 241.097,828.225 286.5,801.5 Z"/></g>
<g><path style="opacity:0.995" fill="#df4511" d="M 2183.5,809.5 C 2235.83,839.5 2288.17,869.5 2340.5,899.5C 2344.59,904.665 2347.92,910.332 2350.5,916.5C 2295.53,884.678 2240.53,852.845 2185.5,821C 2183.35,819.589 2181.02,818.755 2178.5,818.5C 2179.77,815.24 2181.44,812.24 2183.5,809.5 Z"/></g>
<g><path style="opacity:0.998" fill="#e04810" d="M 2178.5,818.5 C 2181.02,818.755 2183.35,819.589 2185.5,821C 2240.53,852.845 2295.53,884.678 2350.5,916.5C 2362.25,935.001 2373.25,954.001 2383.5,973.5C 2310,930.914 2236.33,888.581 2162.5,846.5C 2167.33,836.833 2172.66,827.5 2178.5,818.5 Z"/></g>
<g><path style="opacity:0.994" fill="#2fb0df" d="M 302.5,829.5 C 310.001,841.164 317.001,853.164 323.5,865.5C 321.692,865.491 320.025,865.991 318.5,867C 237.97,914.097 157.303,960.931 76.5,1007.5C 89.6641,983.167 103.331,959.167 117.5,935.5C 117.369,936.239 117.536,936.906 118,937.5C 179.929,902.035 241.429,866.035 302.5,829.5 Z"/></g>
<g><path style="opacity:0.997" fill="#e14e10" d="M 2162.5,846.5 C 2236.33,888.581 2310,930.914 2383.5,973.5C 2400.67,1001.83 2417.33,1030.5 2433.5,1059.5C 2335.12,1003.22 2236.95,946.557 2139,889.5C 2138.29,890.381 2137.46,891.047 2136.5,891.5C 2144.41,876.002 2153.08,861.002 2162.5,846.5 Z"/></g>
<g><path style="opacity:0.998" fill="#32afdf" d="M 323.5,865.5 C 327.152,871.464 330.819,877.464 334.5,883.5C 241.167,937.167 147.833,990.833 54.5,1044.5C 61.5962,1031.97 68.9296,1019.63 76.5,1007.5C 157.303,960.931 237.97,914.097 318.5,867C 320.025,865.991 321.692,865.491 323.5,865.5 Z"/></g>
<g><path style="opacity:0.999" fill="#35adde" d="M 334.5,883.5 C 345.099,901.699 355.432,920.032 365.5,938.5C 261.646,998.839 157.646,1059.01 53.5,1119C 52.7476,1119.67 52.4142,1120.5 52.5,1121.5C 45.006,1109.85 38.006,1097.85 31.5,1085.5C 38.9089,1071.68 46.5755,1058.01 54.5,1044.5C 147.833,990.833 241.167,937.167 334.5,883.5 Z"/></g>
<g><path style="opacity:0.998" fill="#e2540f" d="M 2433.5,1059.5 C 2438.18,1066.35 2442.52,1073.52 2446.5,1081C 2441.36,1089.45 2436.36,1097.95 2431.5,1106.5C 2429.69,1106.51 2428.02,1106.01 2426.5,1105C 2323.28,1045.22 2219.94,985.724 2116.5,926.5C 2122.92,914.663 2129.58,902.996 2136.5,891.5C 2137.46,891.047 2138.29,890.381 2139,889.5C 2236.95,946.557 2335.12,1003.22 2433.5,1059.5 Z"/></g>
<g><path style="opacity:0.999" fill="#e35a0e" d="M 2116.5,926.5 C 2219.94,985.724 2323.28,1045.22 2426.5,1105C 2428.02,1106.01 2429.69,1106.51 2431.5,1106.5C 2424.4,1119.03 2417.07,1131.37 2409.5,1143.5C 2305.39,1083.94 2201.39,1024.11 2097.5,964C 2096.75,963.329 2096.41,962.496 2096.5,961.5C 2102.41,949.337 2109.08,937.67 2116.5,926.5 Z"/></g>
<g><path style="opacity:0.999" fill="#39abdc" d="M 365.5,938.5 C 372.737,949.965 379.737,961.632 386.5,973.5C 281.47,1034.01 176.803,1095.01 72.5,1156.5C 65.5838,1145 58.9172,1133.34 52.5,1121.5C 52.4142,1120.5 52.7476,1119.67 53.5,1119C 157.646,1059.01 261.646,998.839 365.5,938.5 Z"/></g>
<g><path style="opacity:0.999" fill="#e45e0c" d="M 2096.5,961.5 C 2096.41,962.496 2096.75,963.329 2097.5,964C 2201.39,1024.11 2305.39,1083.94 2409.5,1143.5C 2407,1149.17 2404,1154.5 2400.5,1159.5C 2295.5,1099.5 2190.5,1039.5 2085.5,979.5C 2088.68,973.13 2092.35,967.13 2096.5,961.5 Z"/></g>
<g><path style="opacity:1" fill="#37a8da" d="M 386.5,973.5 C 387.167,974.833 387.833,976.167 388.5,977.5C 388.167,977.5 387.833,977.5 387.5,977.5C 283.527,1037.82 179.527,1098.15 75.5,1158.5C 74.8165,1158.14 74.1499,1157.8 73.5,1157.5C 72.8333,1157.5 72.5,1157.17 72.5,1156.5C 176.803,1095.01 281.47,1034.01 386.5,973.5 Z"/></g>
<g><path style="opacity:0.999" fill="#37a7db" d="M 387.5,977.5 C 388.598,978.397 388.598,979.23 387.5,980C 283.833,1040.17 180.167,1100.33 76.5,1160.5C 75.8165,1160.14 75.1499,1159.8 74.5,1159.5C 73.6618,1159.16 73.3284,1158.49 73.5,1157.5C 74.1499,1157.8 74.8165,1158.14 75.5,1158.5C 179.527,1098.15 283.527,1037.82 387.5,977.5 Z"/></g>
<g><path style="opacity:0.998" fill="#34a5d8" d="M 387.5,977.5 C 387.833,977.5 388.167,977.5 388.5,977.5C 393.53,985.218 398.197,993.218 402.5,1001.5C 298.133,1062.68 193.467,1123.35 88.5,1183.5C 83.332,1175.84 78.6653,1167.84 74.5,1159.5C 75.1499,1159.8 75.8165,1160.14 76.5,1160.5C 180.167,1100.33 283.833,1040.17 387.5,980C 388.598,979.23 388.598,978.397 387.5,977.5 Z"/></g>
<g><path style="opacity:0.998" fill="#e4610b" d="M 2085.5,979.5 C 2190.5,1039.5 2295.5,1099.5 2400.5,1159.5C 2396.42,1167.34 2392.08,1175 2387.5,1182.5C 2282.83,1122.17 2178.17,1061.83 2073.5,1001.5C 2077.07,993.931 2081.07,986.597 2085.5,979.5 Z"/></g>
<g><path style="opacity:0.993" fill="#eb8600" d="M 1950.5,1214.5 C 1952.65,1214.37 1954.65,1214.87 1956.5,1216C 2059.53,1275.51 2162.53,1335.01 2265.5,1394.5C 2255.43,1412.97 2245.1,1431.3 2234.5,1449.5C 1967.97,1296.07 1701.63,1142.4 1435.5,988.5C 1436.6,987.402 1437.93,987.235 1439.5,988C 1599.83,1080.5 1760.17,1173 1920.5,1265.5C 1930.75,1248.67 1940.75,1231.67 1950.5,1214.5 Z"/></g>
<g><path style="opacity:0.996" fill="#0077ac" d="M 1067.5,1003.5 C 1064.68,1006.47 1061.34,1008.97 1057.5,1011C 790.642,1165.26 523.976,1319.76 257.5,1474.5C 251.414,1466 246.081,1457 241.5,1447.5C 241.937,1445.93 242.937,1444.76 244.5,1444C 348.024,1384.41 451.358,1324.57 554.5,1264.5C 555.659,1265.46 556.826,1266.46 558,1267.5C 717.729,1175.39 877.229,1082.89 1036.5,990C 1038.04,988.813 1039.71,988.48 1041.5,989C 1050.31,993.661 1058.98,998.494 1067.5,1003.5 Z"/></g>
<g><path style="opacity:0.999" fill="#ec8b00" d="M 1435.5,988.5 C 1701.63,1142.4 1967.97,1296.07 2234.5,1449.5C 2227.4,1462.03 2220.07,1474.37 2212.5,1486.5C 1939.17,1328.5 1665.83,1170.5 1392.5,1012.5C 1406.7,1004.23 1421.03,996.234 1435.5,988.5 Z"/></g>
<g><path style="opacity:0.999" fill="#30a3d5" d="M 402.5,1001.5 C 404.071,1003.64 405.404,1005.97 406.5,1008.5C 302.496,1070.17 197.829,1130.84 92.5,1190.5C 90.412,1188.66 89.0787,1186.33 88.5,1183.5C 193.467,1123.35 298.133,1062.68 402.5,1001.5 Z"/></g>
<g><path style="opacity:0.998" fill="#e56709" d="M 2073.5,1001.5 C 2178.17,1061.83 2282.83,1122.17 2387.5,1182.5C 2378.83,1197.83 2370.17,1213.17 2361.5,1228.5C 2257.23,1167.36 2152.56,1106.69 2047.5,1046.5C 2055.41,1031 2064.08,1016 2073.5,1001.5 Z"/></g>
<g><path style="opacity:0.999" fill="#0075aa" d="M 1067.5,1003.5 C 1080.17,1010.83 1092.83,1018.17 1105.5,1025.5C 1105.63,1026.38 1105.3,1027.04 1104.5,1027.5C 828.473,1187.51 552.473,1347.51 276.5,1507.5C 269.412,1497 263.079,1486 257.5,1474.5C 523.976,1319.76 790.642,1165.26 1057.5,1011C 1061.34,1008.97 1064.68,1006.47 1067.5,1003.5 Z"/></g>
<g><path style="opacity:0.998" fill="#2fa1d4" d="M 406.5,1008.5 C 407.674,1009.51 408.34,1010.85 408.5,1012.5C 408.063,1014.07 407.063,1015.24 405.5,1016C 301.976,1075.59 198.642,1135.43 95.5,1195.5C 93.7497,1194.34 92.7497,1192.67 92.5,1190.5C 197.829,1130.84 302.496,1070.17 406.5,1008.5 Z"/></g>
<g><path style="opacity:0.998" fill="#2da0d3" d="M 408.5,1012.5 C 411.669,1016.83 414.336,1021.5 416.5,1026.5C 311.833,1086.83 207.167,1147.17 102.5,1207.5C 99.6654,1203.84 97.332,1199.84 95.5,1195.5C 198.642,1135.43 301.976,1075.59 405.5,1016C 407.063,1015.24 408.063,1014.07 408.5,1012.5 Z"/></g>
<g><path style="opacity:0.999" fill="#ee8e00" d="M 1392.5,1012.5 C 1665.83,1170.5 1939.17,1328.5 2212.5,1486.5C 2209.59,1493.33 2205.92,1499.67 2201.5,1505.5C 2194.24,1500.19 2186.57,1495.36 2178.5,1491C 1910,1336.59 1641.67,1181.92 1373.5,1027C 1372.21,1026.51 1370.87,1026.34 1369.5,1026.5C 1376.96,1021.6 1384.63,1016.93 1392.5,1012.5 Z"/></g>
<g><path style="opacity:0.999" fill="#0072a6" d="M 1105.5,1025.5 C 1118.5,1032.83 1131.5,1040.17 1144.5,1047.5C 1142.53,1050.35 1139.86,1052.51 1136.5,1054C 856.139,1216.51 575.806,1379.01 295.5,1541.5C 289.139,1530.15 282.805,1518.82 276.5,1507.5C 552.473,1347.51 828.473,1187.51 1104.5,1027.5C 1105.3,1027.04 1105.63,1026.38 1105.5,1025.5 Z"/></g>
<g><path style="opacity:0.999" fill="#299dd1" d="M 416.5,1026.5 C 420.251,1030.99 423.251,1035.99 425.5,1041.5C 320.498,1101.66 215.831,1162.33 111.5,1223.5C 107.997,1218.5 104.997,1213.17 102.5,1207.5C 207.167,1147.17 311.833,1086.83 416.5,1026.5 Z"/></g>
<g><path style="opacity:0.999" fill="#ee9200" d="M 1369.5,1026.5 C 1370.87,1026.34 1372.21,1026.51 1373.5,1027C 1641.67,1181.92 1910,1336.59 2178.5,1491C 2186.57,1495.36 2194.24,1500.19 2201.5,1505.5C 2191.67,1523.83 2181.34,1541.83 2170.5,1559.5C 1882.97,1393.57 1595.3,1227.9 1307.5,1062.5C 1327.83,1050 1348.5,1038 1369.5,1026.5 Z"/></g>
<g><path style="opacity:0.999" fill="#269bcf" d="M 425.5,1041.5 C 427.153,1044.13 428.819,1046.8 430.5,1049.5C 325.171,1109.16 220.504,1169.83 116.5,1231.5C 114.336,1229.18 112.669,1226.51 111.5,1223.5C 215.831,1162.33 320.498,1101.66 425.5,1041.5 Z"/></g>
<g><path style="opacity:0.998" fill="#e66d07" d="M 2047.5,1046.5 C 2152.56,1106.69 2257.23,1167.36 2361.5,1228.5C 2354.91,1239.34 2348.58,1250.34 2342.5,1261.5C 2237.36,1201.43 2132.36,1141.1 2027.5,1080.5C 2034.18,1069.13 2040.85,1057.8 2047.5,1046.5 Z"/></g>
<g><path style="opacity:0.999" fill="#006fa3" d="M 1144.5,1047.5 C 1155.2,1053.85 1165.87,1060.18 1176.5,1066.5C 887.833,1233.5 599.167,1400.5 310.5,1567.5C 305.5,1558.83 300.5,1550.17 295.5,1541.5C 575.806,1379.01 856.139,1216.51 1136.5,1054C 1139.86,1052.51 1142.53,1050.35 1144.5,1047.5 Z"/></g>
<g><path style="opacity:0.999" fill="#2298cc" d="M 430.5,1049.5 C 435.167,1057.5 439.833,1065.5 444.5,1073.5C 443.448,1073.35 442.448,1073.52 441.5,1074C 337.854,1134.82 233.854,1194.99 129.5,1254.5C 124.774,1247.09 120.441,1239.43 116.5,1231.5C 220.504,1169.83 325.171,1109.16 430.5,1049.5 Z"/></g>
<g><path style="opacity:0.999" fill="#f09900" d="M 1307.5,1062.5 C 1595.3,1227.9 1882.97,1393.57 2170.5,1559.5C 2157.77,1582.63 2144.77,1605.63 2131.5,1628.5C 1839.5,1460.5 1547.5,1292.5 1255.5,1124.5C 1255.33,1113.49 1255.5,1102.49 1256,1091.5C 1273.07,1081.58 1290.24,1071.91 1307.5,1062.5 Z"/></g>
<g><path style="opacity:0.999" fill="#006ca0" d="M 1176.5,1066.5 C 1191.61,1074.56 1206.61,1082.89 1221.5,1091.5C 1222.49,1095.78 1222.83,1100.12 1222.5,1104.5C 1222.17,1104.5 1221.83,1104.5 1221.5,1104.5C 1221.67,1101.15 1221.5,1097.82 1221,1094.5C 925.718,1266.22 630.218,1437.56 334.5,1608.5C 326.5,1594.83 318.5,1581.17 310.5,1567.5C 599.167,1400.5 887.833,1233.5 1176.5,1066.5 Z"/></g>
<g><path style="opacity:0.999" fill="#1e95ca" d="M 444.5,1073.5 C 445.11,1074.39 445.443,1075.39 445.5,1076.5C 445.439,1078.59 444.439,1080.09 442.5,1081C 342.5,1139 242.5,1197 142.5,1255C 139.222,1256.81 135.889,1258.31 132.5,1259.5C 131.11,1258.1 130.11,1256.43 129.5,1254.5C 233.854,1194.99 337.854,1134.82 441.5,1074C 442.448,1073.52 443.448,1073.35 444.5,1073.5 Z"/></g>
<g><path style="opacity:0.999" fill="#1c94c8" d="M 445.5,1076.5 C 448.905,1080.3 451.571,1084.63 453.5,1089.5C 349.075,1150.59 244.408,1211.26 139.5,1271.5C 136.665,1267.84 134.332,1263.84 132.5,1259.5C 135.889,1258.31 139.222,1256.81 142.5,1255C 242.5,1197 342.5,1139 442.5,1081C 444.439,1080.09 445.439,1078.59 445.5,1076.5 Z"/></g>
<g><path style="opacity:0.999" fill="#e66f05" d="M 2027.5,1080.5 C 2132.36,1141.1 2237.36,1201.43 2342.5,1261.5C 2341.15,1263.54 2339.82,1265.54 2338.5,1267.5C 2337.97,1265.38 2336.64,1263.88 2334.5,1263C 2231.11,1203.98 2128.11,1144.48 2025.5,1084.5C 2026.17,1083.17 2026.83,1081.83 2027.5,1080.5 Z"/></g>
<g><path style="opacity:0.999" fill="#e67005" d="M 2025.5,1084.5 C 2128.11,1144.48 2231.11,1203.98 2334.5,1263C 2336.64,1263.88 2337.97,1265.38 2338.5,1267.5C 2337.89,1269.43 2336.89,1271.1 2335.5,1272.5C 2231.75,1211.95 2127.58,1151.95 2023,1092.5C 2022.1,1092.74 2021.26,1093.08 2020.5,1093.5C 2021.92,1090.33 2023.58,1087.33 2025.5,1084.5 Z"/></g>
<g><path style="opacity:0.999" fill="#1992c6" d="M 453.5,1089.5 C 455.75,1093 457.75,1096.67 459.5,1100.5C 457.599,1102.8 455.266,1104.63 452.5,1106C 352.5,1164 252.5,1222 152.5,1280C 150.35,1281.41 148.016,1282.24 145.5,1282.5C 143.234,1278.97 141.234,1275.3 139.5,1271.5C 244.408,1211.26 349.075,1150.59 453.5,1089.5 Z"/></g>
<g><path style="opacity:0.999" fill="#e87304" d="M 2335.5,1272.5 C 2330.25,1283.33 2324.25,1293.67 2317.5,1303.5C 2213.39,1243.89 2109.39,1184.06 2005.5,1124C 2004.75,1123.33 2004.41,1122.5 2004.5,1121.5C 2009.33,1111.83 2014.66,1102.5 2020.5,1093.5C 2021.26,1093.08 2022.1,1092.74 2023,1092.5C 2127.58,1151.95 2231.75,1211.95 2335.5,1272.5 Z"/></g>
<g><path style="opacity:1" fill="#00699d" d="M 1221.5,1104.5 C 1221.78,1107.45 1221.44,1110.28 1220.5,1113C 927.942,1282.78 635.275,1452.28 342.5,1621.5C 339.597,1617.37 336.93,1613.04 334.5,1608.5C 630.218,1437.56 925.718,1266.22 1221,1094.5C 1221.5,1097.82 1221.67,1101.15 1221.5,1104.5 Z"/></g>
<g><path style="opacity:0.999" fill="#1790c4" d="M 459.5,1100.5 C 461.735,1103.29 463.735,1106.29 465.5,1109.5C 361.358,1170.41 257.025,1231.07 152.5,1291.5C 151.817,1291.14 151.15,1290.8 150.5,1290.5C 148.347,1288.21 146.68,1285.54 145.5,1282.5C 148.016,1282.24 150.35,1281.41 152.5,1280C 252.5,1222 352.5,1164 452.5,1106C 455.266,1104.63 457.599,1102.8 459.5,1100.5 Z"/></g>
<g><path style="opacity:0.999" fill="#016699" d="M 1221.5,1104.5 C 1221.83,1104.5 1222.17,1104.5 1222.5,1104.5C 1222.5,1118.17 1222.5,1131.83 1222.5,1145.5C 1221.68,1147.97 1221.18,1150.64 1221,1153.5C 934.357,1320.24 647.524,1486.57 360.5,1652.5C 353.746,1642.67 347.746,1632.33 342.5,1621.5C 635.275,1452.28 927.942,1282.78 1220.5,1113C 1221.44,1110.28 1221.78,1107.45 1221.5,1104.5 Z"/></g>
<g><path style="opacity:0.998" fill="#148ec2" d="M 465.5,1109.5 C 468.434,1114.37 471.1,1119.37 473.5,1124.5C 473.047,1125.46 472.381,1126.29 471.5,1127C 375.241,1182.27 279.241,1237.93 183.5,1294C 175.561,1298.47 167.561,1302.63 159.5,1306.5C 155.997,1301.5 152.997,1296.17 150.5,1290.5C 151.15,1290.8 151.817,1291.14 152.5,1291.5C 257.025,1231.07 361.358,1170.41 465.5,1109.5 Z"/></g>
<g><path style="opacity:0.999" fill="#e87902" d="M 2004.5,1121.5 C 2004.41,1122.5 2004.75,1123.33 2005.5,1124C 2109.39,1184.06 2213.39,1243.89 2317.5,1303.5C 2310.92,1316.99 2303.59,1329.99 2295.5,1342.5C 2190.83,1282.17 2086.17,1221.83 1981.5,1161.5C 1988.66,1147.83 1996.33,1134.5 2004.5,1121.5 Z"/></g>
<g><path style="opacity:1" fill="#f19f00" d="M 1255.5,1124.5 C 1547.5,1292.5 1839.5,1460.5 2131.5,1628.5C 2118.4,1651.7 2105.07,1674.7 2091.5,1697.5C 2091.22,1696.78 2090.88,1695.95 2090.5,1695C 1812.26,1534.58 1533.93,1374.41 1255.5,1214.5C 1255.5,1184.5 1255.5,1154.5 1255.5,1124.5 Z"/></g>
<g><path style="opacity:0.998" fill="#108bbf" d="M 473.5,1124.5 C 477.586,1129.66 480.92,1135.33 483.5,1141.5C 379.496,1203.17 274.829,1263.84 169.5,1323.5C 165.929,1318.03 162.596,1312.37 159.5,1306.5C 167.561,1302.63 175.561,1298.47 183.5,1294C 279.241,1237.93 375.241,1182.27 471.5,1127C 472.381,1126.29 473.047,1125.46 473.5,1124.5 Z"/></g>
<g><path style="opacity:0.999" fill="#0d88be" d="M 483.5,1141.5 C 484.82,1143.46 486.154,1145.46 487.5,1147.5C 382.833,1208.5 278.167,1269.5 173.5,1330.5C 171.917,1328.34 170.584,1326 169.5,1323.5C 274.829,1263.84 379.496,1203.17 483.5,1141.5 Z"/></g>
<g><path style="opacity:0.999" fill="#016296" d="M 1222.5,1145.5 C 1222.5,1148.5 1222.5,1151.5 1222.5,1154.5C 1221.83,1157.03 1221.17,1159.69 1220.5,1162.5C 1217.5,1164.33 1214.5,1166.17 1211.5,1168C 928.776,1331.36 646.443,1495.19 364.5,1659.5C 362.917,1657.34 361.584,1655 360.5,1652.5C 647.524,1486.57 934.357,1320.24 1221,1153.5C 1221.18,1150.64 1221.68,1147.97 1222.5,1145.5 Z"/></g>
<g><path style="opacity:0.999" fill="#0b87bc" d="M 487.5,1147.5 C 489.754,1151.01 491.754,1154.67 493.5,1158.5C 493.586,1159.5 493.252,1160.33 492.5,1161C 388.262,1221.42 283.928,1281.59 179.5,1341.5C 177.246,1337.99 175.246,1334.33 173.5,1330.5C 278.167,1269.5 382.833,1208.5 487.5,1147.5 Z"/></g>
<g><path style="opacity:0.999" fill="#025f92" d="M 1222.5,1154.5 C 1222.5,1169.83 1222.5,1185.17 1222.5,1200.5C 1221.83,1200.5 1221.5,1200.83 1221.5,1201.5C 944.894,1361.14 668.561,1521.3 392.5,1682C 388.559,1684.15 384.559,1685.98 380.5,1687.5C 374.775,1678.43 369.441,1669.1 364.5,1659.5C 646.443,1495.19 928.776,1331.36 1211.5,1168C 1214.5,1166.17 1217.5,1164.33 1220.5,1162.5C 1221.17,1159.69 1221.83,1157.03 1222.5,1154.5 Z"/></g>
<g><path style="opacity:0.998" fill="#0884ba" d="M 493.5,1158.5 C 496.559,1162.9 499.225,1167.57 501.5,1172.5C 396.57,1232.78 291.903,1293.44 187.5,1354.5C 184.597,1350.37 181.93,1346.04 179.5,1341.5C 283.928,1281.59 388.262,1221.42 492.5,1161C 493.252,1160.33 493.586,1159.5 493.5,1158.5 Z"/></g>
<g><path style="opacity:0.998" fill="#e98000" d="M 1981.5,1161.5 C 2086.17,1221.83 2190.83,1282.17 2295.5,1342.5C 2285.99,1360.2 2275.99,1377.53 2265.5,1394.5C 2162.53,1335.01 2059.53,1275.51 1956.5,1216C 1954.65,1214.87 1952.65,1214.37 1950.5,1214.5C 1960.6,1196.63 1970.93,1178.97 1981.5,1161.5 Z"/></g>
<g><path style="opacity:1" fill="#0684b8" d="M 501.5,1172.5 C 502.167,1172.5 502.5,1172.83 502.5,1173.5C 397.919,1234.95 292.919,1295.62 187.5,1355.5C 187.5,1355.17 187.5,1354.83 187.5,1354.5C 291.903,1293.44 396.57,1232.78 501.5,1172.5 Z"/></g>
<g><path style="opacity:0.999" fill="#0381b7" d="M 502.5,1173.5 C 507.02,1180.54 511.02,1187.87 514.5,1195.5C 410.133,1256.35 305.466,1316.68 200.5,1376.5C 195.93,1369.7 191.597,1362.7 187.5,1355.5C 292.919,1295.62 397.919,1234.95 502.5,1173.5 Z"/></g>
<g><path style="opacity:0.998" fill="#007db3" d="M 514.5,1195.5 C 521.254,1205.33 527.254,1215.67 532.5,1226.5C 428.133,1287.35 323.466,1347.68 218.5,1407.5C 211.746,1397.67 205.746,1387.33 200.5,1376.5C 305.466,1316.68 410.133,1256.35 514.5,1195.5 Z"/></g>
<g><path style="opacity:1" fill="#045a8c" d="M 1222.5,1200.5 C 1222.5,1215.5 1222.5,1230.5 1222.5,1245.5C 948.742,1404.59 674.742,1563.26 400.5,1721.5C 394.251,1711.34 388.251,1701.01 382.5,1690.5C 660.443,1528.52 938.776,1367.02 1217.5,1206C 1219.64,1205.12 1220.97,1203.62 1221.5,1201.5C 1221.5,1200.83 1221.83,1200.5 1222.5,1200.5 Z"/></g>
<g><path style="opacity:1" fill="#035c8f" d="M 1221.5,1201.5 C 1220.97,1203.62 1219.64,1205.12 1217.5,1206C 938.776,1367.02 660.443,1528.52 382.5,1690.5C 381.599,1689.71 380.932,1688.71 380.5,1687.5C 384.559,1685.98 388.559,1684.15 392.5,1682C 668.561,1521.3 944.894,1361.14 1221.5,1201.5 Z"/></g>
<g><path style="opacity:0.997" fill="#f2a500" d="M 1255.5,1214.5 C 1533.93,1374.41 1812.26,1534.58 2090.5,1695C 2090.88,1695.95 2091.22,1696.78 2091.5,1697.5C 2079.2,1719.78 2066.53,1741.78 2053.5,1763.5C 1948.64,1702.9 1843.64,1642.57 1738.5,1582.5C 1738.72,1581.32 1738.39,1580.32 1737.5,1579.5C 1577.17,1487.5 1416.83,1395.5 1256.5,1303.5C 1255.5,1273.84 1255.17,1244.17 1255.5,1214.5 Z"/></g>
<g><path style="opacity:0.998" fill="#007ab0" d="M 532.5,1226.5 C 540.335,1238.83 547.668,1251.5 554.5,1264.5C 451.358,1324.57 348.024,1384.41 244.5,1444C 242.937,1444.76 241.937,1445.93 241.5,1447.5C 233.331,1434.5 225.665,1421.17 218.5,1407.5C 323.466,1347.68 428.133,1287.35 532.5,1226.5 Z"/></g>
<g><path style="opacity:1" fill="#045889" d="M 1222.5,1245.5 C 1222.5,1246.83 1222.5,1248.17 1222.5,1249.5C 949.184,1407.81 675.85,1566.14 402.5,1724.5C 401.094,1724.03 400.427,1723.03 400.5,1721.5C 674.742,1563.26 948.742,1404.59 1222.5,1245.5 Z"/></g>
<g><path style="opacity:0.999" fill="#055486" d="M 1222.5,1249.5 C 1223.32,1257.47 1223.66,1265.47 1223.5,1273.5C 1222.83,1278.35 1222.17,1283.35 1221.5,1288.5C 954.058,1443.95 686.391,1598.95 418.5,1753.5C 412.901,1743.97 407.567,1734.3 402.5,1724.5C 675.85,1566.14 949.184,1407.81 1222.5,1249.5 Z"/></g>
<g><path style="opacity:1" fill="#065182" d="M 1223.5,1273.5 C 1223.5,1281.17 1223.5,1288.83 1223.5,1296.5C 956.798,1451.52 690.131,1606.52 423.5,1761.5C 421.847,1758.87 420.181,1756.2 418.5,1753.5C 686.391,1598.95 954.058,1443.95 1221.5,1288.5C 1222.17,1283.35 1222.83,1278.35 1223.5,1273.5 Z"/></g>
<g><path style="opacity:0.988" fill="#074f7f" d="M 1223.5,1296.5 C 1223.66,1298.53 1223.5,1300.53 1223,1302.5C 1061.75,1395.87 900.585,1489.37 739.5,1583C 744.638,1591.45 749.638,1599.95 754.5,1608.5C 653.228,1666.47 552.228,1724.97 451.5,1784C 447.559,1786.15 443.559,1787.98 439.5,1789.5C 434.167,1780.17 428.833,1770.83 423.5,1761.5C 690.131,1606.52 956.798,1451.52 1223.5,1296.5 Z"/></g>
<g><path style="opacity:0.999" fill="#f2aa00" d="M 1738.5,1582.5 C 1843.64,1642.57 1948.64,1702.9 2053.5,1763.5C 2047.17,1774.83 2040.83,1786.17 2034.5,1797.5C 1930,1736.08 1825,1675.41 1719.5,1615.5C 1725.08,1604 1731.41,1593 1738.5,1582.5 Z"/></g>
<g><path style="opacity:0.998" fill="#084b7b" d="M 754.5,1608.5 C 756.833,1612.5 759.167,1616.5 761.5,1620.5C 759.692,1620.49 758.025,1620.99 756.5,1622C 653.585,1681.71 550.751,1741.54 448,1801.5C 447.617,1800.94 447.117,1800.61 446.5,1800.5C 443.931,1797.04 441.597,1793.37 439.5,1789.5C 443.559,1787.98 447.559,1786.15 451.5,1784C 552.228,1724.97 653.228,1666.47 754.5,1608.5 Z"/></g>
<g><path style="opacity:0.999" fill="#f3ad00" d="M 1719.5,1615.5 C 1825,1675.41 1930,1736.08 2034.5,1797.5C 2027.91,1808.34 2021.58,1819.34 2015.5,1830.5C 1911.22,1770.69 1806.89,1710.86 1702.5,1651C 1701.62,1650.29 1700.95,1649.46 1700.5,1648.5C 1706.08,1637 1712.41,1626 1719.5,1615.5 Z"/></g>
<g><path style="opacity:0.998" fill="#084878" d="M 761.5,1620.5 C 765.195,1627.18 768.862,1633.85 772.5,1640.5C 667.575,1700.77 562.908,1761.43 458.5,1822.5C 454.07,1815.4 450.07,1808.07 446.5,1800.5C 447.117,1800.61 447.617,1800.94 448,1801.5C 550.751,1741.54 653.585,1681.71 756.5,1622C 758.025,1620.99 759.692,1620.49 761.5,1620.5 Z"/></g>
<g><path style="opacity:0.999" fill="#094575" d="M 772.5,1640.5 C 775.737,1645.3 778.737,1650.3 781.5,1655.5C 676.833,1715.83 572.167,1776.17 467.5,1836.5C 464.015,1832.21 461.015,1827.54 458.5,1822.5C 562.908,1761.43 667.575,1700.77 772.5,1640.5 Z"/></g>
<g><path style="opacity:0.998" fill="#f5b200" d="M 1700.5,1648.5 C 1700.95,1649.46 1701.62,1650.29 1702.5,1651C 1806.89,1710.86 1911.22,1770.69 2015.5,1830.5C 1981.5,1889.5 1947.5,1948.5 1913.5,2007.5C 1808.15,1947.14 1702.82,1886.81 1597.5,1826.5C 1631.85,1767.13 1666.18,1707.8 1700.5,1648.5 Z"/></g>
<g><path style="opacity:0.999" fill="#0a4371" d="M 781.5,1655.5 C 787.685,1665.2 793.352,1675.2 798.5,1685.5C 694.527,1745.82 590.527,1806.15 486.5,1866.5C 485.583,1865.87 484.583,1865.54 483.5,1865.5C 477.901,1855.97 472.567,1846.3 467.5,1836.5C 572.167,1776.17 676.833,1715.83 781.5,1655.5 Z"/></g>
<g><path style="opacity:0.998" fill="#0c416f" d="M 798.5,1685.5 C 799.89,1686.9 800.89,1688.57 801.5,1690.5C 697.276,1750.05 593.276,1810.05 489.5,1870.5C 489.036,1871.64 488.702,1872.64 488.5,1873.5C 486.847,1870.87 485.181,1868.2 483.5,1865.5C 484.583,1865.54 485.583,1865.87 486.5,1866.5C 590.527,1806.15 694.527,1745.82 798.5,1685.5 Z"/></g>
<g><path style="opacity:0.998" fill="#0f406d" d="M 801.5,1690.5 C 813.588,1709.67 824.921,1729.34 835.5,1749.5C 731.133,1810.35 626.466,1870.68 521.5,1930.5C 510.263,1911.7 499.263,1892.7 488.5,1873.5C 488.702,1872.64 489.036,1871.64 489.5,1870.5C 593.276,1810.05 697.276,1750.05 801.5,1690.5 Z"/></g>
<g><path style="opacity:0.999" fill="#113e69" d="M 835.5,1749.5 C 838.486,1754.13 841.486,1758.8 844.5,1763.5C 745.725,1820.39 647.058,1877.56 548.5,1935C 542.381,1938.73 536.048,1941.89 529.5,1944.5C 526.833,1939.83 524.167,1935.17 521.5,1930.5C 626.466,1870.68 731.133,1810.35 835.5,1749.5 Z"/></g>
<g><path style="opacity:0.999" fill="#153b66" d="M 844.5,1763.5 C 855.845,1783.53 867.179,1803.53 878.5,1823.5C 774.366,1884.4 670.033,1945.07 565.5,2005.5C 553.263,1985.37 541.263,1965.03 529.5,1944.5C 536.048,1941.89 542.381,1938.73 548.5,1935C 647.058,1877.56 745.725,1820.39 844.5,1763.5 Z"/></g>
<g><path style="opacity:0.999" fill="#173962" d="M 878.5,1823.5 C 881.335,1827.16 883.668,1831.16 885.5,1835.5C 885.489,1837.02 884.823,1838.18 883.5,1839C 780.088,1898.45 676.921,1958.29 574,2018.5C 573.617,2017.94 573.117,2017.61 572.5,2017.5C 569.377,2014.02 567.043,2010.02 565.5,2005.5C 670.033,1945.07 774.366,1884.4 878.5,1823.5 Z"/></g>
<g><path style="opacity:0.997" fill="#f6b800" d="M 1597.5,1826.5 C 1702.82,1886.81 1808.15,1947.14 1913.5,2007.5C 1890.51,2047.47 1867.51,2087.47 1844.5,2127.5C 1804.84,2128.5 1765.17,2128.83 1725.5,2128.5C 1743,2127.67 1760.66,2127.17 1778.5,2127C 1690.14,2076.15 1601.81,2025.32 1513.5,1974.5C 1541.07,1924.93 1569.07,1875.59 1597.5,1826.5 Z"/></g>
<g><path style="opacity:0.999" fill="#193861" d="M 885.5,1835.5 C 888.669,1839.83 891.336,1844.5 893.5,1849.5C 893.719,1850.68 893.386,1851.68 892.5,1852.5C 788.606,1912.61 684.94,1972.94 581.5,2033.5C 577.997,2028.5 574.997,2023.17 572.5,2017.5C 573.117,2017.61 573.617,2017.94 574,2018.5C 676.921,1958.29 780.088,1898.45 883.5,1839C 884.823,1838.18 885.489,1837.02 885.5,1835.5 Z"/></g>
<g><path style="opacity:0.998" fill="#1b375f" d="M 893.5,1849.5 C 901.335,1861.83 908.668,1874.5 915.5,1887.5C 811.306,1948.7 706.639,2009.04 601.5,2068.5C 594.569,2056.97 587.902,2045.3 581.5,2033.5C 684.94,1972.94 788.606,1912.61 892.5,1852.5C 893.386,1851.68 893.719,1850.68 893.5,1849.5 Z"/></g>
<g><path style="opacity:0.998" fill="#1e345a" d="M 915.5,1887.5 C 928.197,1908.22 940.53,1929.22 952.5,1950.5C 850.137,2009.34 748.137,2068.68 646.5,2128.5C 645.508,2128.33 644.842,2128.66 644.5,2129.5C 641.552,2129.78 638.719,2129.44 636,2128.5C 624.672,2108.35 613.172,2088.35 601.5,2068.5C 706.639,2009.04 811.306,1948.7 915.5,1887.5 Z"/></g>
<g><path style="opacity:1" fill="#1f3258" d="M 952.5,1950.5 C 954.75,1954 956.75,1957.67 958.5,1961.5C 957.969,1963.62 956.635,1965.12 954.5,1966C 861.167,2020 767.833,2074 674.5,2128C 665.173,2128.5 655.839,2128.67 646.5,2128.5C 748.137,2068.68 850.137,2009.34 952.5,1950.5 Z"/></g>
<g><path style="opacity:0.999" fill="#203156" d="M 958.5,1961.5 C 962.586,1966.66 965.92,1972.33 968.5,1978.5C 882.331,2029.09 795.997,2079.42 709.5,2129.5C 687.833,2129.5 666.167,2129.5 644.5,2129.5C 644.842,2128.66 645.508,2128.33 646.5,2128.5C 655.839,2128.67 665.173,2128.5 674.5,2128C 767.833,2074 861.167,2020 954.5,1966C 956.635,1965.12 957.969,1963.62 958.5,1961.5 Z"/></g>
<g><path style="opacity:0.992" fill="#f8bd00" d="M 1513.5,1974.5 C 1601.81,2025.32 1690.14,2076.15 1778.5,2127C 1760.66,2127.17 1743,2127.67 1725.5,2128.5C 1625.17,2128.67 1524.83,2128.5 1424.5,2128C 1425.06,2127.62 1425.39,2127.12 1425.5,2126.5C 1435.09,2127.64 1444.76,2127.81 1454.5,2127C 1447.54,2122.36 1440.21,2118.52 1432.5,2115.5C 1458.75,2068 1485.75,2021 1513.5,1974.5 Z"/></g>
<g><path style="opacity:0.997" fill="#213054" d="M 968.5,1978.5 C 980.737,1998.63 992.737,2018.97 1004.5,2039.5C 953.131,2069.51 901.798,2099.51 850.5,2129.5C 803.5,2129.5 756.5,2129.5 709.5,2129.5C 795.997,2079.42 882.331,2029.09 968.5,1978.5 Z"/></g>
<g><path style="opacity:0.996" fill="#242d4f" d="M 1004.5,2039.5 C 1014.17,2056.17 1023.83,2072.83 1033.5,2089.5C 1030.98,2089.76 1028.65,2090.59 1026.5,2092C 1005.61,2103.94 984.939,2116.11 964.5,2128.5C 952.988,2128.17 941.654,2128.51 930.5,2129.5C 903.833,2129.5 877.167,2129.5 850.5,2129.5C 901.798,2099.51 953.131,2069.51 1004.5,2039.5 Z"/></g>
<g><path style="opacity:0.997" fill="#262c4d" d="M 1033.5,2089.5 C 1034.44,2091.05 1035.11,2092.72 1035.5,2094.5C 1015.89,2105.64 996.221,2116.81 976.5,2128C 972.514,2128.5 968.514,2128.67 964.5,2128.5C 984.939,2116.11 1005.61,2103.94 1026.5,2092C 1028.65,2090.59 1030.98,2089.76 1033.5,2089.5 Z"/></g>
<g><path style="opacity:0.983" fill="#262a4c" d="M 1035.5,2094.5 C 1042.94,2105.71 1049.61,2117.38 1055.5,2129.5C 1013.83,2129.5 972.167,2129.5 930.5,2129.5C 941.654,2128.51 952.988,2128.17 964.5,2128.5C 968.514,2128.67 972.514,2128.5 976.5,2128C 996.221,2116.81 1015.89,2105.64 1035.5,2094.5 Z"/></g>
<g><path style="opacity:0.984" fill="#f9c100" d="M 1432.5,2115.5 C 1440.21,2118.52 1447.54,2122.36 1454.5,2127C 1444.76,2127.81 1435.09,2127.64 1425.5,2126.5C 1427.6,2122.63 1429.93,2118.96 1432.5,2115.5 Z"/></g>
</svg>
